ply
format ascii 1.0
comment Created by Blender 2.76 (sub 0) - www.blender.org, source file: 'PlayerPiano.blend'
element vertex 14
property float x
property float y
property float z
property float s
property float t
element face 6
property list uchar uint vertex_indices
end_header
-0.671030 1.492728 0.468303 -0.000000 0.541176
-1.330307 1.492728 0.468303 1.000000 0.541176
-1.330307 1.681523 0.567240 1.000000 0.929412
-0.671030 1.681523 0.567240 0.000000 0.929412
-0.671030 1.450165 0.468303 0.000000 0.458824
-1.330307 1.450165 0.468303 1.000000 0.458824
-1.330307 1.468708 0.463281 1.000000 0.494118
-0.671030 1.468708 0.463281 -0.000000 0.494118
-1.330307 1.681523 0.602815 1.000000 1.000000
-0.671030 1.681523 0.602815 0.000000 1.000000
-1.330307 1.255893 0.572022 1.000000 0.058824
-0.671030 1.255893 0.572022 0.000000 0.058824
-0.671030 1.255893 0.602815 0.000000 0.000000
-1.330307 1.255893 0.602815 1.000000 0.000000
4 0 1 2 3
4 4 5 6 7
4 3 2 8 9
4 10 11 12 13
4 7 6 1 0
4 11 10 5 4
