ply
format ascii 1.0
element vertex 14
property float x
property float y
property float z
property float s
property float t
element face 6
property list uchar uint vertex_indices
end_header
-0.620301 1.492728 0.468303 0.000085 0.545300
-1.381036 1.492728 0.468303 0.999915 0.545300
-1.381036 1.681523 0.567240 0.999915 0.934961
-0.620301 1.681523 0.567240 0.000085 0.934961
-0.620301 1.450165 0.468303 0.000085 0.465318
-1.381036 1.450165 0.468303 0.999915 0.465319
-1.381036 1.468708 0.463281 0.999915 0.500439
-0.620301 1.468708 0.463281 0.000085 0.500441
-1.381036 1.681523 0.602815 0.999915 0.999998
-0.620301 1.681523 0.602815 0.000085 1.000000
-1.381036 1.255893 0.572022 0.999915 0.062719
-0.620301 1.255893 0.572022 0.000085 0.062719
-0.620301 1.255893 0.602815 0.000085 0.006424
-1.381036 1.255893 0.602815 0.999915 0.006425
4 0 1 2 3
4 4 5 6 7
4 3 2 8 9
4 10 11 12 13
4 7 6 1 0
4 11 10 5 4
