# Blender v2.76 (sub 0) OBJ File: 'PlayerPiano.blend'
# www.blender.org
mtllib PlayerPiano-KeyWhite.mtl
o WhiteKey_Cube.003
v 1.899458 0.843705 -0.031250
v 1.899458 0.906205 -0.031250
v 1.899458 0.843705 -0.329398
v 1.899458 0.906205 -0.329398
v 1.935084 0.843705 -0.031250
v 1.934339 0.906205 -0.031250
v 1.935084 0.843705 -0.329398
v 1.934339 0.906205 -0.329398
vt 0.800000 0.741176
vt 0.788235 0.741176
vt 0.788235 0.694118
vt 0.811765 0.694118
vt 0.823529 0.694118
vt 0.823529 0.741176
vt 0.800000 0.694118
vt 0.800000 0.682353
vt 0.811765 0.741176
vt 0.811765 0.682353
vn -1.000000 0.000000 0.000000
vn 0.999900 0.011900 0.000000
vn 0.000000 0.000000 1.000000
vn 0.000000 1.000000 0.000000
usemtl Material.001
s off
f 4/1/1 3/2/1 1/3/1
f 6/4/2 5/5/2 7/6/2
f 6/4/3 2/7/3 1/8/3
f 8/9/4 4/1/4 2/7/4
f 2/7/1 4/1/1 1/3/1
f 8/9/2 6/4/2 7/6/2
f 5/10/3 6/4/3 1/8/3
f 6/4/4 8/9/4 2/7/4
